<?xml version="1.0" encoding="utf-8"?>
<!-- Generator: Adobe Illustrator 19.1.0, SVG Export Plug-In . SVG Version: 6.00 Build 0)  -->
<svg version="1.1" id="Layer_1" xmlns="http://www.w3.org/2000/svg" xmlns:xlink="http://www.w3.org/1999/xlink" x="0px" y="0px"
	 viewBox="0 0 82.8 93.7" style="enable-background:new 0 0 82.8 93.7;" xml:space="preserve">
<style type="text/css">
	.st0{fill:#DDDDDD;}
	.st1{fill:#ED1C24;}
	.st2{fill:#726658;}
</style>
<g>
	<path class="st0" d="M23.6,62.3C41.3,42.6,59.2,22.6,77.1,2.5c1.5,1.7,2.4,3.6,2.8,5.7c0.9,4.8-0.5,9.1-3.6,12.6
		c-4.1,4.8-8.6,9.4-13,13.9c-4,4.1-8.3,8-12.5,11.9C43.5,53.3,36.3,59.9,29,66.6c-0.2,0.2-0.5,0.4-1,0.8
		C26.6,65.7,25.1,64.1,23.6,62.3z"/>
	<path class="st1" d="M30,66.1c0,0,0.4-10.4,2.9-12.5c2.5-2.1,1.8-1.8,7.1-2.5s4.9-4.2,6.8-7.5s11-5.8,13-10.4
		c2-4.6,12.1-10.6,10.8-14.9c-1.3-4.3,0.9-8.4,0.9-8.4l1.6-3.1l4-4.5l1.2,1.6l2.4,5.5l-0.6,5.8c0,0-2.8,15.3-4.5,15.1
		c-1.7-0.1-1.4-3.5-1.4-3.5s-3.3,8.4-4.1,8.5S70,30.9,70,30.9s-3.5,6.9-4.7,7.7c-1.2,0.7,0.5-4.3,0.5-4.3L50.4,48.3L48.1,51
		L31.9,65.4L30,66.1z"/>
	<path class="st2" d="M23.9,72.6c-2.6,3.2-4.9,6.3-7.5,9.2c-1.5,1.6-3.4,2.8-5.2,4.2c-0.2,0.2-0.4,0.5-0.6,0.7c-0.6,1-1.1,2-1.8,2.9
		c-0.4,0.6-1.2,0.7-1.8,0.3c-2.2-1.2-3.5-3-4.1-5.4c-0.2-0.9,0.2-1.7,0.9-2.4c4.6-5,9.2-9.9,13.8-14.9c0.6-0.6,0.8-1.3,0.9-2
		c0.3-2.1,1.8-2.8,3.5-1.6c1.1,0.8,2,1.8,3,2.7c0.9,0.9,1.8,1.9,2.7,2.8c0.6,0.5,0.6,1.1,0.2,1.7C27.1,72.5,25.7,73,23.9,72.6z"/>
	<path d="M81.9,12.9c-0.6,2.8-1.4,5.4-3.2,7.7c-2.1,2.7-4.2,5.3-6.5,7.7C67,33.8,61.6,39.1,56.2,44.3C47.5,52.5,38.7,60.5,30,68.6
		c-0.3,0.3-0.5,0.7-0.5,1.1c-0.1,2.4-1.4,3.9-3.7,4.2c-0.8,0.1-1.2,0.4-1.7,1c-2.8,3.9-5.7,7.7-9.5,10.8c-1.3,1.1-2.6,2-3.1,3.8
		c-0.2,0.8-1,1.5-1.6,2.2c-1,1.1-1.6,1.2-2.9,0.3c-2.6-1.7-4.3-4-5.4-6.9c-0.1-0.1-0.1-0.3-0.2-0.4c0-0.5,0-1.1,0-1.6
		c1.2-1.4,2.4-2.8,3.7-4.2c3.9-4.2,7.9-8.3,11.8-12.5c0.3-0.3,0.5-0.8,0.5-1.2c0.1-1.9,2-3.5,3.9-3.2c0.3,0,0.8-0.1,1-0.3
		c4.3-4.7,8.5-9.4,12.7-14.1c7.9-8.7,15.9-17.5,23.8-26.2c5.9-6.5,11.7-12.9,17.6-19.4c0.2-0.2,0.3-0.5,0.5-0.7c0.1,0,0.3,0,0.4,0
		c0.8,0.9,1.5,1.8,2.2,2.7c1.3,1.7,1.9,3.8,2.4,5.9C81.9,10.8,81.9,11.9,81.9,12.9z M23.6,62.3c1.5,1.8,2.9,3.4,4.4,5
		c0.5-0.4,0.8-0.6,1-0.8c7.3-6.6,14.6-13.2,21.8-19.9c4.2-3.9,8.4-7.8,12.5-11.9c4.5-4.5,8.9-9.1,13-13.9c3.1-3.5,4.5-7.8,3.6-12.6
		c-0.4-2.1-1.3-4-2.8-5.7C59.2,22.6,41.3,42.6,23.6,62.3z M23.9,72.6c1.8,0.5,3.1-0.1,4-1.7c0.3-0.6,0.3-1.2-0.2-1.7
		c-0.9-0.9-1.8-1.9-2.7-2.8c-1-0.9-1.9-2-3-2.7c-1.7-1.2-3.2-0.4-3.5,1.6c-0.1,0.8-0.4,1.4-0.9,2C13,72.3,8.4,77.3,3.8,82.2
		c-0.6,0.7-1.1,1.4-0.9,2.4c0.6,2.4,1.9,4.2,4.1,5.4c0.7,0.4,1.4,0.3,1.8-0.3c0.6-0.9,1.2-1.9,1.8-2.9c0.2-0.3,0.3-0.6,0.6-0.7
		c1.7-1.4,3.7-2.6,5.2-4.2C19,78.9,21.3,75.7,23.9,72.6z"/>
	<circle class="st1" cx="59.6" cy="29.4" r="0.6"/>
	<circle class="st1" cx="65.3" cy="23.9" r="0.2"/>
	<circle class="st1" cx="67.3" cy="22.3" r="0.3"/>
	<circle class="st1" cx="62.8" cy="27.7" r="0.6"/>
	<circle class="st1" cx="57.5" cy="33.2" r="0.9"/>
</g>
</svg>
